<?xml version="1.0" encoding="UTF-8" standalone="no"?><!DOCTYPE svg PUBLIC "-//W3C//DTD SVG 1.1//EN" "http://www.w3.org/Graphics/SVG/1.1/DTD/svg11.dtd"><svg width="100%" height="100%" viewBox="0 0 1208 2010" version="1.1" xmlns="http://www.w3.org/2000/svg" xmlns:xlink="http://www.w3.org/1999/xlink" xml:space="preserve" xmlns:serif="http://www.serif.com/" style="fill-rule:evenodd;clip-rule:evenodd;stroke-linecap:round;stroke-linejoin:round;stroke-miterlimit:1.5;"><rect id="Artboard4" x="0" y="0" width="1207.361" height="2009.658" style="fill:none;"/><path d="M496.925,377.494c39.661,-24.268 89.603,-35.764 154.328,-28.893l30.562,434.867l-184.89,-405.974Z" style="fill:#9b1b1f;fill-opacity:0.69;stroke:#9b1b1f;stroke-width:6.25px;"/><path d="M610.623,392.832l273.453,1500.448" style="fill:none;stroke:#000;stroke-width:6.25px;"/><path d="M297.917,186.464c11.981,47.755 34.806,189.341 312.706,206.368l71.192,-77.501c-110.056,-6.341 -189.613,-46.768 -234.304,-126.164l-149.594,-2.704Z" style="fill:none;stroke:#000;stroke-width:6.25px;"/><path d="M681.816,315.331l259.051,1472.549" style="fill:none;stroke:#000;stroke-width:6.25px;"/><path d="M297.831,186.464l337.871,1588.381" style="fill:none;stroke:#000;stroke-width:6.25px;"/><path d="M575.56,474.209l100.684,-0.127" style="fill:none;stroke:#9b1b1f;stroke-width:4.17px;"/><path d="M619.56,604.408l100.684,-0.127" style="fill:none;stroke:#9b1b1f;stroke-width:4.17px;"/><path d="M654.56,766.408l100.684,-0.127" style="fill:none;stroke:#9b1b1f;stroke-width:4.17px;"/></svg>